# xmcd
#
# Track frame offsets: 
#        150
#        11032
#        23334
#        34132
#        49628
#        67906
#        76439
#        92135
#        110311
#        126714
#        139584
#        153056
#        165445
#        179791
#
# Disc length: 2639 seconds
#
# Revision: 0
# Processed by: cddbd v1.5.1PL0 Copyright (c) Steve Scherf et al.
# Submitted via: ExactAudioCopy v0.95a3
#
DISCID=ac0a4d0e
DTITLE=Roberto Carlos - O Calhambeque
DYEAR=1900
DGENRE=Latin
TTITLE0=O Calhambeque (Road Hog) 1971
TTITLE1=Namoradinha de um amigo meu 1976
TTITLE2=Pega ladrão 1965
TTITLE3=Não quero ver você triste 1971
TTITLE4=Eu te amo, te amo, te amo 1968
TTITLE5=Parei... olhei 1971
TTITLE6=Jesus Cristo 1970
TTITLE7=Quero que vá tudo pr'o inferno 1965
TTITLE8=Eu te darei o céu 1976
TTITLE9=Lobo mau (The Wanderer) 1965
TTITLE10=Só vou gostar de quem gosta de mim 1967
TTITLE11=De que vale tudo isso 1967
TTITLE12=É meu, é meu, é meu 1968
TTITLE13=Quando 1967
EXTD=
EXTT0=
EXTT1=
EXTT2=
EXTT3=
EXTT4=
EXTT5=
EXTT6=
EXTT7=
EXTT8=
EXTT9=
EXTT10=
EXTT11=
EXTT12=
EXTT13=
PLAYORDER=
